<mxfile host="app.diagrams.net" modified="2020-10-14T08:41:37.407Z" agent="5.0 (Windows NT 10.0; Win64; x64) AppleWebKit/537.36 (KHTML, like Gecko) Chrome/86.0.4240.75 Safari/537.36" etag="yNVy6uk5OPVCyf5MJeFu" version="13.8.0" type="github">
  <diagram id="9jTPodUJkMlD6sthyIr5" name="Page-1">
    <mxGraphModel dx="974" dy="588" grid="1" gridSize="10" guides="1" tooltips="1" connect="1" arrows="1" fold="1" page="1" pageScale="1" pageWidth="827" pageHeight="1169" math="0" shadow="0">
      <root>
        <mxCell id="0" />
        <mxCell id="1" parent="0" />
        <mxCell id="T7VN9x5e1lifajvr06ys-2" value="" style="rounded=0;whiteSpace=wrap;html=1;" parent="1" vertex="1">
          <mxGeometry x="240" y="40" width="400" height="520" as="geometry" />
        </mxCell>
        <mxCell id="T7VN9x5e1lifajvr06ys-3" value="" style="rounded=1;whiteSpace=wrap;html=1;" parent="1" vertex="1">
          <mxGeometry x="320" y="260" width="120" height="60" as="geometry" />
        </mxCell>
      </root>
    </mxGraphModel>
  </diagram>
</mxfile>
